<?xml version="1.0" encoding="iso-8859-1"?>
<!-- Generator: Adobe Illustrator 18.0.0, SVG Export Plug-In . SVG Version: 6.00 Build 0)  -->
<!DOCTYPE svg PUBLIC "-//W3C//DTD SVG 1.1//EN" "http://www.w3.org/Graphics/SVG/1.1/DTD/svg11.dtd">
<svg version="1.1" id="Capa_1" xmlns="http://www.w3.org/2000/svg" xmlns:xlink="http://www.w3.org/1999/xlink" x="0px" y="0px"
	 viewBox="0 0 287.717 287.717" style="enable-background:new 0 0 287.717 287.717;" xml:space="preserve">
<g>
	<polygon points="193.821,227.717 207.298,83 80.7,83 94.738,227.717 	"/>
	<path d="M249.76,274.108l24-257.717c0.768-8.248-5.296-15.558-13.545-16.326C259.746,0.021,259.281,0,258.818,0
		c-7.65,0.001-14.204,5.832-14.929,13.609l-22.733,244.107H67.507L43.822,13.552C43.069,5.797,36.544,0,28.905,0
		c-0.483,0-0.971,0.023-1.461,0.071c-8.245,0.8-14.281,8.133-13.481,16.378l25,257.717c0.745,7.688,7.206,13.552,14.93,13.552
		h180.933C242.57,287.717,249.042,281.819,249.76,274.108z"/>
</g>
<g>
</g>
<g>
</g>
<g>
</g>
<g>
</g>
<g>
</g>
<g>
</g>
<g>
</g>
<g>
</g>
<g>
</g>
<g>
</g>
<g>
</g>
<g>
</g>
<g>
</g>
<g>
</g>
<g>
</g>
</svg>
